<svg width="42" height="42" viewBox="0 0 42 42" fill="none" xmlns="http://www.w3.org/2000/svg">
<path d="M31.6554 5.78049C32.7784 4.65745 32.7784 2.83362 31.6554 1.71057C30.5323 0.587524 28.7085 0.587524 27.5854 1.71057L15.2499 14.0551L10.0929 8.89807C8.96982 7.77502 7.146 7.77502 6.02295 8.89807C4.8999 10.0211 4.8999 11.8449 6.02295 12.968L13.2104 20.1555C14.3335 21.2785 16.1573 21.2785 17.2804 20.1555L31.6554 5.78049ZM40.2804 17.2805C41.4034 16.1574 41.4034 14.3336 40.2804 13.2106C39.1573 12.0875 37.3335 12.0875 36.2104 13.2106L15.2499 34.1801L5.78037 24.7196C4.65732 23.5965 2.8335 23.5965 1.71045 24.7196C0.587402 25.8426 0.587402 27.6664 1.71045 28.7895L13.2104 40.2895C14.3335 41.4125 16.1573 41.4125 17.2804 40.2895L40.2804 17.2895V17.2805Z" fill="#0B0A0C"/>
</svg>
