<svg width="52" height="48" viewBox="0 0 52 48" fill="none" xmlns="http://www.w3.org/2000/svg">
<path d="M19.4028 47.1526V43.5422C19.4028 40.2386 22.0809 37.5605 25.3846 37.5605H31.8817C32.2316 37.5605 32.5175 37.2757 32.5185 36.9258L32.5191 36.7384C32.5196 36.5647 32.4564 36.3941 32.3338 36.2708C32.2135 36.1499 32.0531 36.0832 31.8825 36.0832H13.2134C9.90976 36.0832 7.23169 33.4051 7.23169 30.1015V29.8981C7.23169 26.5944 9.90976 23.9163 13.2134 23.9163H38.0039C38.3556 23.9163 38.6407 23.6313 38.6407 23.2795V23.173C38.6407 22.8212 38.3556 22.5362 38.0039 22.5362H16.025C14.4377 22.5362 12.9425 21.921 11.8149 20.804C10.6872 19.687 10.0582 18.1977 10.0432 16.6105L10.0427 16.5435C10.0277 14.9354 10.6427 13.4205 11.7749 12.2779C12.9068 11.1353 14.4161 10.506 16.0244 10.506H32.2663C32.6162 10.506 32.9021 10.2212 32.9031 9.87128V9.81843C32.9037 9.65829 32.8503 9.50082 32.7441 9.38098C32.6213 9.24246 32.45 9.16559 32.2666 9.16559H27.8521C24.5484 9.16559 21.8703 6.48752 21.8703 3.18384V0.846605C21.8703 0.378997 22.2493 0 22.7169 0H26.3689C26.8365 0 27.2155 0.378997 27.2155 0.846605V3.18358C27.2155 3.53535 27.5006 3.8204 27.8523 3.8204H32.2669C33.868 3.8204 35.3725 4.44494 36.5031 5.57873C37.6337 6.71252 38.2537 8.2189 38.2489 9.82003V9.83498C38.2441 11.4294 37.6259 12.9689 36.4988 14.0968C35.3688 15.2279 33.8653 15.8509 32.2669 15.8509H16.0412C15.8667 15.8509 15.6956 15.9149 15.5726 16.0391C15.4519 16.1608 15.386 16.3222 15.3876 16.4936L15.3881 16.5606C15.3913 16.9075 15.6777 17.1913 16.0247 17.1913H38.0177C41.3137 17.1913 43.9856 19.8632 43.9856 23.1591V23.2798C43.9856 26.5835 41.3075 29.2615 38.0039 29.2615H13.2134C12.8617 29.2615 12.5766 29.5466 12.5766 29.8983V30.1017C12.5766 30.4535 12.8617 30.7385 13.2134 30.7385H31.8302C33.4343 30.7385 34.9836 31.3594 36.1166 32.4947C37.2485 33.6288 37.8693 35.1362 37.8645 36.7384L37.864 36.9424C37.8592 38.5405 37.2317 40.0419 36.0977 41.1684C34.9663 42.2924 33.4249 42.9062 31.8299 42.9062H25.3851C25.0333 42.9062 24.7483 43.1913 24.7483 43.543V47.1534C24.7483 47.621 24.3693 48 23.9017 48H20.2497C19.7821 48 19.4031 47.621 19.4031 47.1534L19.4028 47.1526Z" fill="#0B0A0C"/>
<path d="M45.1295 18.8085L45.1178 18.7909C44.7994 18.3065 44.9336 17.6558 45.4181 17.3374L47.601 15.9017C48.0855 15.5833 48.7362 15.7176 49.0546 16.202L49.0663 16.2196C49.3847 16.704 49.2505 17.3547 48.7661 17.6731L46.5831 19.1088C46.0987 19.4272 45.448 19.293 45.1295 18.8085Z" fill="#0B0A0C"/>
<path d="M49.0548 30.6948L49.0666 30.6772C49.385 30.1927 49.2507 29.542 48.7663 29.2236L46.5833 27.788C46.0989 27.4696 45.4482 27.6038 45.1298 28.0882L45.118 28.1058C44.7996 28.5903 44.9339 29.241 45.4183 29.5594L47.6013 30.995C48.0857 31.3134 48.7364 31.1792 49.0548 30.6948Z" fill="#0B0A0C"/>
<path d="M50.2683 22.4397H47.6559C47.0762 22.4397 46.6062 22.9097 46.6062 23.4894V23.5102C46.6062 24.09 47.0762 24.5599 47.6559 24.5599H50.2683C50.8481 24.5599 51.318 24.09 51.318 23.5102V23.4894C51.318 22.9097 50.8481 22.4397 50.2683 22.4397Z" fill="#0B0A0C"/>
<path d="M2.31481 22.9293L2.3264 22.9117C2.64463 22.4278 3.29595 22.2933 3.77986 22.6115L5.96281 24.0471C6.44672 24.3653 6.58147 25.0168 6.26309 25.5009L6.25151 25.5185C5.93327 26.0024 5.28195 26.137 4.79804 25.8187L2.61509 24.3832C2.13118 24.0649 1.99644 23.4135 2.31481 22.9293Z" fill="#0B0A0C"/>
<path d="M2.61558 35.933L4.79853 34.4974C5.28244 34.1792 5.93398 34.3136 6.25236 34.7977L6.26395 34.8153C6.58218 35.2992 6.4478 35.9508 5.96367 36.2692L3.78072 37.7047C3.29681 38.023 2.64527 37.8886 2.32689 37.4044L2.3153 37.3868C1.99707 36.9029 2.13145 36.2514 2.61558 35.933Z" fill="#0B0A0C"/>
<path d="M3.72487 29.1501H1.11246C0.532718 29.1501 0.0627441 29.6201 0.0627441 30.1999V30.2207C0.0627441 30.8004 0.532718 31.2704 1.11246 31.2704H3.72487C4.30461 31.2704 4.77459 30.8004 4.77459 30.2207V30.1999C4.77459 29.6201 4.30461 29.1501 3.72487 29.1501Z" fill="#0B0A0C"/>
</svg>
