<svg width="36" height="46" viewBox="0 0 36 46" fill="none" xmlns="http://www.w3.org/2000/svg">
<g clip-path="url(#clip0_393_228)">
<path d="M27.6469 4.00711C28.1078 2.77625 27.7641 1.33875 26.8189 0.548127C25.8737 -0.242498 24.5848 -0.170623 23.7021 0.709846L3.70431 20.8348C2.92315 21.6255 2.64193 22.8923 3.00908 24.0063C3.37623 25.1204 4.31362 25.8751 5.35257 25.8751H14.0625L8.05539 41.993C7.5945 43.2239 7.93821 44.6614 8.88342 45.452C9.82863 46.2427 11.1175 46.1708 12.0003 45.2903L31.998 25.1653C32.7792 24.3747 33.0604 23.1079 32.6932 21.9938C32.3261 20.8798 31.3965 20.1341 30.3498 20.1341H21.6398L27.6469 4.00711Z" fill="#C2110E"/>
</g>
<defs>
<clipPath id="clip0_393_228">
<rect width="34.9961" height="46" fill="white" transform="translate(0.353027)"/>
</clipPath>
</defs>
</svg>
