<svg width="49" height="48" viewBox="0 0 49 48" fill="none" xmlns="http://www.w3.org/2000/svg">
<path d="M24.5 47.9999C37.7562 47.9999 48.5 37.2562 48.5 23.9999C48.5 10.7437 37.7562 -6.10352e-05 24.5 -6.10352e-05C11.2438 -6.10352e-05 0.5 10.7437 0.5 23.9999C0.5 37.2562 11.2438 47.9999 24.5 47.9999ZM24.5 11.9999C25.7469 11.9999 26.75 13.0031 26.75 14.2499V24.7499C26.75 25.9968 25.7469 26.9999 24.5 26.9999C23.2531 26.9999 22.25 25.9968 22.25 24.7499V14.2499C22.25 13.0031 23.2531 11.9999 24.5 11.9999ZM27.5 32.9999C27.5 34.6593 26.1594 35.9999 24.5 35.9999C22.8406 35.9999 21.5 34.6593 21.5 32.9999C21.5 31.3406 22.8406 29.9999 24.5 29.9999C26.1594 29.9999 27.5 31.3406 27.5 32.9999Z" fill="#0B0A0C"/>
</svg>
