<svg width="49" height="42" viewBox="0 0 49 42" fill="none" xmlns="http://www.w3.org/2000/svg">
<path d="M4.9625 24.2108L21.9031 40.0264C22.6063 40.6827 23.5344 41.0483 24.5 41.0483C25.4656 41.0483 26.3938 40.6827 27.0969 40.0264L44.0375 24.2108C46.8875 21.5577 48.5 17.8358 48.5 13.9452V13.4014C48.5 6.84829 43.7656 1.26079 37.3063 0.182667C33.0312 -0.529832 28.6812 0.867043 25.625 3.92329L24.5 5.04829L23.375 3.92329C20.3188 0.867043 15.9688 -0.529832 11.6938 0.182667C5.23438 1.26079 0.5 6.84829 0.5 13.4014V13.9452C0.5 17.8358 2.1125 21.5577 4.9625 24.2108Z" fill="#0B0A0C"/>
</svg>
