<svg width="37" height="48" viewBox="0 0 37 48" fill="none" xmlns="http://www.w3.org/2000/svg">
<path d="M15.5 -6.10352e-05C17.1594 -6.10352e-05 18.5 1.34056 18.5 2.99994V13.4999H12.5V2.99994C12.5 1.34056 13.8406 -6.10352e-05 15.5 -6.10352e-05ZM3.5 5.99994C3.5 4.34056 4.84062 2.99994 6.5 2.99994C8.15938 2.99994 9.5 4.34056 9.5 5.99994V13.4999H3.5V5.99994ZM21.5 5.99994C21.5 4.34056 22.8406 2.99994 24.5 2.99994C26.1594 2.99994 27.5 4.34056 27.5 5.99994V14.9999C27.5 16.6593 26.1594 17.9999 24.5 17.9999C22.8406 17.9999 21.5 16.6593 21.5 14.9999V5.99994ZM30.5 11.9999C30.5 10.3406 31.8406 8.99994 33.5 8.99994C35.1594 8.99994 36.5 10.3406 36.5 11.9999V17.9999C36.5 19.6593 35.1594 20.9999 33.5 20.9999C31.8406 20.9999 30.5 19.6593 30.5 17.9999V11.9999ZM21.5 20.2499V20.1937C22.3813 20.6999 23.4031 20.9999 24.5 20.9999C25.7375 20.9999 26.8813 20.6249 27.8375 19.9874C28.6531 22.3218 30.8844 23.9999 33.5 23.9999C34.5969 23.9999 35.6188 23.7093 36.5 23.1937V23.9999C36.5 28.9031 34.1469 33.2624 30.5 35.9999V44.9999C30.5 46.6593 29.1594 47.9999 27.5 47.9999H12.5C10.8406 47.9999 9.5 46.6593 9.5 44.9999V37.6499C7.87813 36.9093 6.3875 35.8874 5.10312 34.6031L4.01562 33.5156C1.76562 31.2656 0.5 28.2093 0.5 25.0312V22.4999C0.5 19.1906 3.19063 16.4999 6.5 16.4999H14.75C16.8219 16.4999 18.5 18.1781 18.5 20.2499C18.5 22.3218 16.8219 23.9999 14.75 23.9999H9.5C8.675 23.9999 8 24.6749 8 25.4999C8 26.3249 8.675 26.9999 9.5 26.9999H14.75C18.4813 26.9999 21.5 23.9812 21.5 20.2499Z" fill="#0B0A0C"/>
</svg>
