<svg width="110" height="189" viewBox="0 0 110 189" fill="none" xmlns="http://www.w3.org/2000/svg">
<path d="M3.13574 52V24.7H10.1357V31.25L9.63574 30.3C10.2357 28 11.2191 26.45 12.5857 25.65C13.9857 24.8167 15.6357 24.4 17.5357 24.4H19.1357V30.9H16.7857C14.9524 30.9 13.4691 31.4667 12.3357 32.6C11.2024 33.7 10.6357 35.2667 10.6357 37.3V52H3.13574ZM35.5729 52.6C32.6729 52.6 30.1562 51.9667 28.0229 50.7C25.8895 49.4 24.2395 47.6667 23.0729 45.5C21.9062 43.3333 21.3229 40.9333 21.3229 38.3C21.3229 35.5667 21.9229 33.1333 23.1229 31C24.3562 28.8667 26.0062 27.1833 28.0729 25.95C30.1395 24.7167 32.4729 24.1 35.0729 24.1C37.2395 24.1 39.1562 24.45 40.8229 25.15C42.4895 25.8167 43.8895 26.7667 45.0229 28C46.1895 29.2333 47.0729 30.6667 47.6729 32.3C48.2729 33.9 48.5729 35.65 48.5729 37.55C48.5729 38.0833 48.5395 38.6167 48.4729 39.15C48.4395 39.65 48.3562 40.0833 48.2229 40.45H27.7729V34.95H43.9729L40.4229 37.55C40.7562 36.1167 40.7395 34.85 40.3729 33.75C40.0062 32.6167 39.3562 31.7333 38.4229 31.1C37.5229 30.4333 36.4062 30.1 35.0729 30.1C33.7729 30.1 32.6562 30.4167 31.7229 31.05C30.7895 31.6833 30.0895 32.6167 29.6229 33.85C29.1562 35.0833 28.9729 36.5833 29.0729 38.35C28.9395 39.8833 29.1229 41.2333 29.6229 42.4C30.1229 43.5667 30.8895 44.4833 31.9229 45.15C32.9562 45.7833 34.2062 46.1 35.6729 46.1C37.0062 46.1 38.1395 45.8333 39.0729 45.3C40.0395 44.7667 40.7895 44.0333 41.3229 43.1L47.3229 45.95C46.7895 47.2833 45.9395 48.45 44.7729 49.45C43.6395 50.45 42.2895 51.2333 40.7229 51.8C39.1562 52.3333 37.4395 52.6 35.5729 52.6ZM65.8393 52.6C63.1726 52.6 60.7893 51.9667 58.6893 50.7C56.5893 49.4333 54.9226 47.7167 53.6893 45.55C52.4893 43.3833 51.8893 40.9833 51.8893 38.35C51.8893 35.6833 52.5059 33.2833 53.7393 31.15C54.9726 28.9833 56.6393 27.2667 58.7393 26C60.8393 24.7333 63.1893 24.1 65.7893 24.1C67.7893 24.1 69.5559 24.4833 71.0893 25.25C72.6559 25.9833 73.8893 27.0333 74.7893 28.4L73.6393 29.9V14.15H81.1393V52H74.1393V47L74.8393 48.55C73.9059 49.8833 72.6393 50.9 71.0393 51.6C69.4393 52.2667 67.7059 52.6 65.8393 52.6ZM66.7393 45.85C68.1059 45.85 69.3059 45.5333 70.3393 44.9C71.3726 44.2667 72.1726 43.3833 72.7393 42.25C73.3393 41.1167 73.6393 39.8167 73.6393 38.35C73.6393 36.8833 73.3393 35.5833 72.7393 34.45C72.1726 33.3167 71.3726 32.4333 70.3393 31.8C69.3059 31.1667 68.1059 30.85 66.7393 30.85C65.3726 30.85 64.1393 31.1833 63.0393 31.85C61.9726 32.4833 61.1393 33.3667 60.5393 34.5C59.9393 35.6 59.6393 36.8833 59.6393 38.35C59.6393 39.8167 59.9393 41.1167 60.5393 42.25C61.1393 43.3833 61.9726 44.2667 63.0393 44.9C64.1393 45.5333 65.3726 45.85 66.7393 45.85ZM97.3318 52.6C94.3318 52.6 91.7152 51.9 89.4818 50.5C87.2818 49.0667 85.7818 47.15 84.9818 44.75L90.4818 42.15C91.1818 43.6167 92.1318 44.7667 93.3318 45.6C94.5318 46.4333 95.8652 46.85 97.3318 46.85C98.3985 46.85 99.2152 46.6333 99.7818 46.2C100.349 45.7667 100.632 45.1667 100.632 44.4C100.632 44 100.532 43.6667 100.332 43.4C100.132 43.1 99.8318 42.8333 99.4318 42.6C99.0318 42.3667 98.5318 42.1667 97.9318 42L93.2818 40.7C91.0485 40.0667 89.3318 39.05 88.1318 37.65C86.9318 36.2167 86.3318 34.5333 86.3318 32.6C86.3318 30.9 86.7652 29.4167 87.6318 28.15C88.4985 26.8833 89.7152 25.9 91.2818 25.2C92.8485 24.4667 94.6485 24.1 96.6818 24.1C99.3485 24.1 101.682 24.7333 103.682 26C105.715 27.2333 107.149 28.9833 107.982 31.25L102.432 33.85C102.032 32.7167 101.299 31.8167 100.232 31.15C99.1985 30.45 98.0152 30.1 96.6818 30.1C95.7152 30.1 94.9485 30.3 94.3818 30.7C93.8485 31.1 93.5818 31.65 93.5818 32.35C93.5818 32.7167 93.6818 33.05 93.8818 33.35C94.0818 33.65 94.3985 33.9167 94.8318 34.15C95.2985 34.3833 95.8652 34.6 96.5318 34.8L100.882 36.1C103.149 36.7667 104.882 37.7833 106.082 39.15C107.282 40.4833 107.882 42.1333 107.882 44.1C107.882 45.8 107.432 47.2833 106.532 48.55C105.665 49.8167 104.449 50.8167 102.882 51.55C101.315 52.25 99.4652 52.6 97.3318 52.6Z" fill="#D20032"/>
<path d="M19.4855 115.6C17.6189 115.6 15.8855 115.267 14.2855 114.6C12.7189 113.9 11.4522 112.883 10.4855 111.55L11.1855 110V115H4.18555V77.15H11.6855V92.9L10.5355 91.4C11.4355 90.0333 12.6522 88.9833 14.1855 88.25C15.7522 87.4833 17.5355 87.1 19.5355 87.1C22.1355 87.1 24.4855 87.7333 26.5855 89C28.6855 90.2667 30.3522 91.9833 31.5855 94.15C32.8189 96.2833 33.4355 98.6833 33.4355 101.35C33.4355 103.983 32.8189 106.383 31.5855 108.55C30.3855 110.717 28.7355 112.433 26.6355 113.7C24.5355 114.967 22.1522 115.6 19.4855 115.6ZM18.5855 108.85C19.9855 108.85 21.2189 108.533 22.2855 107.9C23.3522 107.267 24.1855 106.383 24.7855 105.25C25.3855 104.117 25.6855 102.817 25.6855 101.35C25.6855 99.8833 25.3855 98.6 24.7855 97.5C24.1855 96.3667 23.3522 95.4833 22.2855 94.85C21.2189 94.1833 19.9855 93.85 18.5855 93.85C17.2522 93.85 16.0522 94.1667 14.9855 94.8C13.9522 95.4333 13.1355 96.3167 12.5355 97.45C11.9689 98.5833 11.6855 99.8833 11.6855 101.35C11.6855 102.817 11.9689 104.117 12.5355 105.25C13.1355 106.383 13.9522 107.267 14.9855 107.9C16.0522 108.533 17.2522 108.85 18.5855 108.85ZM37.8281 115V77.15H45.3281V115H37.8281ZM63.9664 115.6C61.0664 115.6 58.5497 114.967 56.4164 113.7C54.2831 112.4 52.6331 110.667 51.4664 108.5C50.2997 106.333 49.7164 103.933 49.7164 101.3C49.7164 98.5667 50.3164 96.1333 51.5164 94C52.7497 91.8667 54.3997 90.1833 56.4664 88.95C58.5331 87.7167 60.8664 87.1 63.4664 87.1C65.6331 87.1 67.5497 87.45 69.2164 88.15C70.8831 88.8167 72.2831 89.7667 73.4164 91C74.5831 92.2333 75.4664 93.6667 76.0664 95.3C76.6664 96.9 76.9664 98.65 76.9664 100.55C76.9664 101.083 76.9331 101.617 76.8664 102.15C76.8331 102.65 76.7497 103.083 76.6164 103.45H56.1664V97.95H72.3664L68.8164 100.55C69.1497 99.1167 69.1331 97.85 68.7664 96.75C68.3997 95.6167 67.7497 94.7333 66.8164 94.1C65.9164 93.4333 64.7997 93.1 63.4664 93.1C62.1664 93.1 61.0497 93.4167 60.1164 94.05C59.1831 94.6833 58.4831 95.6167 58.0164 96.85C57.5497 98.0833 57.3664 99.5833 57.4664 101.35C57.3331 102.883 57.5164 104.233 58.0164 105.4C58.5164 106.567 59.2831 107.483 60.3164 108.15C61.3497 108.783 62.5997 109.1 64.0664 109.1C65.3997 109.1 66.5331 108.833 67.4664 108.3C68.4331 107.767 69.1831 107.033 69.7164 106.1L75.7164 108.95C75.1831 110.283 74.3331 111.45 73.1664 112.45C72.0331 113.45 70.6831 114.233 69.1164 114.8C67.5497 115.333 65.8331 115.6 63.9664 115.6ZM81.3828 115V87.7H88.3828V93.1L87.9828 91.9C88.6161 90.2667 89.6328 89.0667 91.0328 88.3C92.4661 87.5 94.1328 87.1 96.0328 87.1C98.0995 87.1 99.8995 87.5333 101.433 88.4C102.999 89.2667 104.216 90.4833 105.083 92.05C105.949 93.5833 106.383 95.3833 106.383 97.45V115H98.8828V99.05C98.8828 97.9833 98.6661 97.0667 98.2328 96.3C97.8328 95.5333 97.2495 94.9333 96.4828 94.5C95.7495 94.0667 94.8828 93.85 93.8828 93.85C92.9161 93.85 92.0495 94.0667 91.2828 94.5C90.5161 94.9333 89.9161 95.5333 89.4828 96.3C89.0828 97.0667 88.8828 97.9833 88.8828 99.05V115H81.3828ZM53.7787 178.6C51.112 178.6 48.7287 177.967 46.6287 176.7C44.5287 175.433 42.862 173.717 41.6287 171.55C40.4287 169.383 39.8287 166.983 39.8287 164.35C39.8287 161.683 40.4454 159.283 41.6787 157.15C42.912 154.983 44.5787 153.267 46.6787 152C48.7787 150.733 51.1287 150.1 53.7287 150.1C55.7287 150.1 57.4954 150.483 59.0287 151.25C60.5954 151.983 61.8287 153.033 62.7287 154.4L61.5787 155.9V140.15H69.0787V178H62.0787V173L62.7787 174.55C61.8454 175.883 60.5787 176.9 58.9787 177.6C57.3787 178.267 55.6454 178.6 53.7787 178.6ZM54.6787 171.85C56.0454 171.85 57.2454 171.533 58.2787 170.9C59.312 170.267 60.112 169.383 60.6787 168.25C61.2787 167.117 61.5787 165.817 61.5787 164.35C61.5787 162.883 61.2787 161.583 60.6787 160.45C60.112 159.317 59.312 158.433 58.2787 157.8C57.2454 157.167 56.0454 156.85 54.6787 156.85C53.312 156.85 52.0787 157.183 50.9787 157.85C49.912 158.483 49.0787 159.367 48.4787 160.5C47.8787 161.6 47.5787 162.883 47.5787 164.35C47.5787 165.817 47.8787 167.117 48.4787 168.25C49.0787 169.383 49.912 170.267 50.9787 170.9C52.0787 171.533 53.312 171.85 54.6787 171.85Z" fill="#0B0A0C"/>
</svg>